<mxfile host="app.diagrams.net" modified="2024-04-02T14:33:59.082Z" agent="Mozilla/5.0 (Windows NT 10.0; Win64; x64) AppleWebKit/537.36 (KHTML, like Gecko) Chrome/122.0.0.0 Safari/537.36" etag="dhUc0RXmrDqURAjMA0xi" version="24.0.7" type="device">
  <diagram name="Page-1" id="3e8102d1-ef87-2e61-34e1-82d9a586fe2e">
    <mxGraphModel dx="3794" dy="2176" grid="1" gridSize="10" guides="0" tooltips="0" connect="0" arrows="0" fold="1" page="1" pageScale="1" pageWidth="1100" pageHeight="850" background="none" math="0" shadow="0">
      <root>
        <mxCell id="0" />
        <mxCell id="1" parent="0" />
        <mxCell id="qJyfH-UtdOvOPoK_O04S-35" value="" style="ellipse;whiteSpace=wrap;html=1;rounded=0;shadow=0;comic=0;strokeWidth=1;fontFamily=Verdana;fontSize=14;strokeColor=#000000;fillColor=#FF8000;" vertex="1" parent="1">
          <mxGeometry x="-312.26" y="-507.38" width="1688.51" height="1734.77" as="geometry" />
        </mxCell>
        <mxCell id="qJyfH-UtdOvOPoK_O04S-26" value="" style="ellipse;whiteSpace=wrap;html=1;rounded=0;shadow=0;comic=0;strokeWidth=1;fontFamily=Verdana;fontSize=14;strokeColor=#000000;fillColor=#FF9999;" vertex="1" parent="1">
          <mxGeometry x="-140.87" y="-339.78000000000003" width="1352.49" height="1389.55" as="geometry" />
        </mxCell>
        <mxCell id="qJyfH-UtdOvOPoK_O04S-11" value="" style="ellipse;whiteSpace=wrap;html=1;rounded=0;shadow=0;comic=0;strokeWidth=1;fontFamily=Verdana;fontSize=14;strokeColor=#000000;fillColor=#99FF99;" vertex="1" parent="1">
          <mxGeometry x="4.9" y="-190" width="1060.94" height="1090" as="geometry" />
        </mxCell>
        <mxCell id="qJyfH-UtdOvOPoK_O04S-2" value="" style="ellipse;whiteSpace=wrap;html=1;rounded=0;shadow=0;comic=0;strokeWidth=1;fontFamily=Verdana;fontSize=14;strokeColor=#000000;fillColor=#66FF66;" vertex="1" parent="1">
          <mxGeometry x="153.34" y="-37.5" width="764.07" height="785" as="geometry" />
        </mxCell>
        <mxCell id="70666756c84bb93c-1" value="" style="ellipse;whiteSpace=wrap;html=1;rounded=0;shadow=0;comic=0;strokeWidth=1;fontFamily=Verdana;fontSize=14;strokeColor=#000000;fillColor=#66B2FF;" parent="1" vertex="1">
          <mxGeometry x="279" y="105" width="510" height="510" as="geometry" />
        </mxCell>
        <mxCell id="70666756c84bb93c-2" value="" style="ellipse;whiteSpace=wrap;html=1;rounded=0;shadow=0;comic=0;strokeWidth=1;fontFamily=Verdana;fontSize=22;strokeColor=none;fillColor=#007FFF;fontColor=#0069D1;fontStyle=1" parent="1" vertex="1">
          <mxGeometry x="400" y="230" width="260" height="260" as="geometry" />
        </mxCell>
        <mxCell id="70666756c84bb93c-5" value="Resurssit&lt;div&gt;&lt;br&gt;&lt;/div&gt;" style="shadow=0;dashed=0;html=1;strokeColor=none;fillColor=#000000;labelPosition=center;verticalLabelPosition=bottom;verticalAlign=top;shape=mxgraph.office.users.users;rounded=0;comic=0;fontFamily=Verdana;fontSize=14;fontColor=#000000;" parent="1" vertex="1">
          <mxGeometry x="930" y="-330" width="46" height="50" as="geometry" />
        </mxCell>
        <mxCell id="70666756c84bb93c-6" value="Käyttäjätuki" style="shadow=0;dashed=0;html=1;strokeColor=none;fillColor=#000000;labelPosition=center;verticalLabelPosition=bottom;verticalAlign=top;shape=mxgraph.office.users.call_center_agent;rounded=0;comic=0;fontFamily=Verdana;fontSize=14;fontColor=#000000;" parent="1" vertex="1">
          <mxGeometry x="330" y="244" width="46" height="55" as="geometry" />
        </mxCell>
        <mxCell id="70666756c84bb93c-10" value="&lt;div&gt;Työasema-&lt;/div&gt;&lt;div&gt;&amp;nbsp;tietoturvakehyksen&amp;nbsp;&lt;/div&gt;&lt;div&gt;mukaiset&amp;nbsp;&lt;/div&gt;&lt;div&gt;kovennukset&lt;/div&gt;" style="shadow=0;dashed=0;html=1;strokeColor=none;fillColor=#000000;labelPosition=center;verticalLabelPosition=bottom;verticalAlign=top;shape=mxgraph.office.security.token_service;rounded=0;comic=0;fontFamily=Verdana;fontSize=14;fontColor=#000000;" parent="1" vertex="1">
          <mxGeometry x="328.35" y="-130" width="49.29" height="46" as="geometry" />
        </mxCell>
        <mxCell id="70666756c84bb93c-13" value="Ohjelmisto-&lt;div&gt;asennukset&lt;/div&gt;&lt;div&gt;ja -päivitykset&lt;/div&gt;" style="shadow=0;dashed=0;html=1;strokeColor=none;shape=mxgraph.mscae.general.continuous_cycle;fillColor=#000000;rounded=0;comic=0;fontFamily=Verdana;fontSize=14;fontColor=##000000;verticalAlign=top;labelPosition=center;verticalLabelPosition=bottom;align=center;" parent="1" vertex="1">
          <mxGeometry x="372" y="10" width="48" height="50" as="geometry" />
        </mxCell>
        <mxCell id="70666756c84bb93c-15" value="Kustannukset" style="shape=mxgraph.signs.travel.euro;html=1;fillColor=#000000;strokeColor=none;verticalLabelPosition=bottom;verticalAlign=top;align=center;rounded=0;shadow=0;dashed=0;comic=0;fontFamily=Verdana;fontSize=14;fontColor=#000000;" parent="1" vertex="1">
          <mxGeometry x="261.5" y="-409" width="45" height="51" as="geometry" />
        </mxCell>
        <mxCell id="qJyfH-UtdOvOPoK_O04S-18" value="&lt;div&gt;&lt;font face=&quot;Verdana&quot;&gt;&lt;span style=&quot;font-size: 14px;&quot;&gt;Strategia&lt;/span&gt;&lt;/font&gt;&lt;/div&gt;" style="sketch=0;pointerEvents=1;shadow=0;dashed=0;html=1;strokeColor=none;fillColor=#000000;labelPosition=center;verticalLabelPosition=bottom;verticalAlign=top;outlineConnect=0;align=center;shape=mxgraph.office.concepts.address_book;" vertex="1" parent="1">
          <mxGeometry x="789" y="-402" width="55" height="44" as="geometry" />
        </mxCell>
        <mxCell id="qJyfH-UtdOvOPoK_O04S-22" value="&lt;div&gt;&lt;font style=&quot;font-size: 24px;&quot;&gt;Perustyö&lt;/font&gt;&lt;/div&gt;" style="text;strokeColor=none;align=center;fillColor=none;html=1;verticalAlign=middle;whiteSpace=wrap;rounded=0;" vertex="1" parent="1">
          <mxGeometry x="455" y="105" width="150" height="60" as="geometry" />
        </mxCell>
        <mxCell id="qJyfH-UtdOvOPoK_O04S-23" value="&lt;font style=&quot;font-size: 24px;&quot;&gt;Mahdollistajat&lt;/font&gt;" style="text;strokeColor=none;align=center;fillColor=none;html=1;verticalAlign=middle;whiteSpace=wrap;rounded=0;" vertex="1" parent="1">
          <mxGeometry x="460.38" y="-11" width="150" height="60" as="geometry" />
        </mxCell>
        <mxCell id="qJyfH-UtdOvOPoK_O04S-28" value="&lt;font style=&quot;font-size: 24px;&quot;&gt;Tekninen tietoturva&lt;/font&gt;" style="text;strokeColor=none;align=center;fillColor=none;html=1;verticalAlign=middle;whiteSpace=wrap;rounded=0;rotation=0;" vertex="1" parent="1">
          <mxGeometry x="384.5" y="-300" width="290" height="60" as="geometry" />
        </mxCell>
        <mxCell id="qJyfH-UtdOvOPoK_O04S-30" value="&lt;font style=&quot;font-size: 24px;&quot;&gt;Hallinnollinen&lt;/font&gt;&lt;div&gt;&lt;font style=&quot;font-size: 24px;&quot;&gt;&amp;nbsp;tietoturva&lt;/font&gt;&lt;/div&gt;" style="text;strokeColor=none;align=center;fillColor=none;html=1;verticalAlign=middle;whiteSpace=wrap;rounded=0;" vertex="1" parent="1">
          <mxGeometry x="102.99999999999989" y="-224" width="290" height="60" as="geometry" />
        </mxCell>
        <mxCell id="qJyfH-UtdOvOPoK_O04S-32" value="&lt;div style=&quot;&quot;&gt;&lt;span style=&quot;font-size: 14px; font-family: Verdana; background-color: initial;&quot;&gt;Työaseman&amp;nbsp;&lt;/span&gt;&lt;/div&gt;&lt;div style=&quot;&quot;&gt;&lt;span style=&quot;font-size: 14px; font-family: Verdana; background-color: initial;&quot;&gt;asennus&lt;/span&gt;&lt;span style=&quot;font-size: 14px; font-family: Verdana; background-color: initial;&quot;&gt;&amp;nbsp;ja&lt;/span&gt;&lt;/div&gt;&lt;div style=&quot;&quot;&gt;&lt;span style=&quot;font-size: 14px; font-family: Verdana; background-color: initial;&quot;&gt;korjaus&lt;/span&gt;&lt;/div&gt;" style="sketch=0;pointerEvents=1;shadow=0;dashed=0;html=1;strokeColor=none;fillColor=#000000;labelPosition=center;verticalLabelPosition=bottom;verticalAlign=top;outlineConnect=0;align=center;shape=mxgraph.office.devices.workstation_pc;" vertex="1" parent="1">
          <mxGeometry x="690" y="221" width="53" height="59" as="geometry" />
        </mxCell>
        <mxCell id="qJyfH-UtdOvOPoK_O04S-33" value="&lt;div&gt;&lt;font style=&quot;font-size: 14px;&quot; face=&quot;Verdana&quot;&gt;Käyttöjärjestelmä-&lt;/font&gt;&lt;div style=&quot;&quot;&gt;&lt;font face=&quot;Verdana&quot; size=&quot;3&quot;&gt;kokoonpanon&amp;nbsp;&lt;/font&gt;&lt;/div&gt;&lt;div style=&quot;&quot;&gt;&lt;font face=&quot;Verdana&quot; size=&quot;3&quot; style=&quot;&quot;&gt;hallinta&lt;/font&gt;&lt;/div&gt;&lt;/div&gt;" style="shape=image;html=1;verticalAlign=top;verticalLabelPosition=bottom;labelBackgroundColor=#;imageAspect=0;aspect=fixed;image=https://cdn1.iconfinder.com/data/icons/logo-s-icon-pack-collection/512/windows-128.png;" vertex="1" parent="1">
          <mxGeometry x="600" y="140" width="40" height="40" as="geometry" />
        </mxCell>
        <mxCell id="qJyfH-UtdOvOPoK_O04S-34" value="&lt;font style=&quot;font-size: 14px;&quot; face=&quot;Verdana&quot;&gt;Tietoturvapäivitysten jakelu&lt;/font&gt;" style="sketch=0;pointerEvents=1;shadow=0;dashed=0;html=1;strokeColor=none;labelPosition=center;verticalLabelPosition=bottom;verticalAlign=top;align=center;fillColor=#000000;shape=mxgraph.mscae.oms.system_update" vertex="1" parent="1">
          <mxGeometry x="650" y="30" width="50" height="50" as="geometry" />
        </mxCell>
        <mxCell id="qJyfH-UtdOvOPoK_O04S-37" value="&lt;font style=&quot;font-size: 24px;&quot;&gt;Liiketoiminta&lt;/font&gt;" style="text;strokeColor=none;align=center;fillColor=none;html=1;verticalAlign=middle;whiteSpace=wrap;rounded=0;" vertex="1" parent="1">
          <mxGeometry x="387" y="-462" width="290" height="60" as="geometry" />
        </mxCell>
        <mxCell id="qJyfH-UtdOvOPoK_O04S-41" value="&lt;font style=&quot;font-size: 18px;&quot;&gt;Tietoturvastandardi&lt;/font&gt;" style="sketch=0;html=1;aspect=fixed;strokeColor=none;shadow=0;fillColor=#000000;verticalAlign=top;labelPosition=center;verticalLabelPosition=bottom;shape=mxgraph.gcp2.certified_industry_standard" vertex="1" parent="1">
          <mxGeometry x="50" y="-110" width="64.1" height="50" as="geometry" />
        </mxCell>
        <mxCell id="qJyfH-UtdOvOPoK_O04S-43" value="&lt;font style=&quot;font-size: 18px;&quot;&gt;&lt;b&gt;Työasematurvallisuus&lt;/b&gt;&lt;/font&gt;" style="text;strokeColor=none;align=center;fillColor=none;html=1;verticalAlign=middle;whiteSpace=wrap;rounded=0;" vertex="1" parent="1">
          <mxGeometry x="460.38" y="280" width="150" height="60" as="geometry" />
        </mxCell>
        <mxCell id="qJyfH-UtdOvOPoK_O04S-45" value="" style="endArrow=none;html=1;rounded=0;exitX=0.362;exitY=0.018;exitDx=0;exitDy=0;exitPerimeter=0;" edge="1" parent="1">
          <mxGeometry width="50" height="50" relative="1" as="geometry">
            <mxPoint x="348.73137999999926" y="-313.76810000000023" as="sourcePoint" />
            <mxPoint x="400" y="-175" as="targetPoint" />
          </mxGeometry>
        </mxCell>
        <mxCell id="qJyfH-UtdOvOPoK_O04S-65" value="&lt;font style=&quot;font-size: 14px;&quot;&gt;Prosessit&lt;/font&gt;&lt;div&gt;&lt;br&gt;&lt;/div&gt;" style="shape=mxgraph.signs.science.nuclear_2;html=1;pointerEvents=1;fillColor=#000000;strokeColor=none;verticalLabelPosition=bottom;verticalAlign=top;align=center;sketch=0;" vertex="1" parent="1">
          <mxGeometry x="67" y="-358" width="98" height="99" as="geometry" />
        </mxCell>
        <mxCell id="qJyfH-UtdOvOPoK_O04S-66" value="&lt;font style=&quot;font-size: 18px;&quot;&gt;Laki tai regulaatio&lt;/font&gt;" style="sketch=0;html=1;aspect=fixed;strokeColor=none;shadow=0;fillColor=#000000;verticalAlign=top;labelPosition=center;verticalLabelPosition=bottom;shape=mxgraph.gcp2.certified_industry_standard" vertex="1" parent="1">
          <mxGeometry x="-20" y="-6" width="64.1" height="50" as="geometry" />
        </mxCell>
        <mxCell id="qJyfH-UtdOvOPoK_O04S-68" value="&lt;font style=&quot;font-size: 24px;&quot;&gt;Valvonta ja parannukset&lt;/font&gt;" style="text;strokeColor=none;align=center;fillColor=none;html=1;verticalAlign=middle;whiteSpace=wrap;rounded=0;" vertex="1" parent="1">
          <mxGeometry x="457" y="-150" width="150" height="60" as="geometry" />
        </mxCell>
        <mxCell id="qJyfH-UtdOvOPoK_O04S-71" value="&lt;font style=&quot;font-size: 18px;&quot;&gt;Tietoturvavalvonta&lt;/font&gt;" style="html=1;verticalLabelPosition=bottom;align=center;labelBackgroundColor=#99FF99;verticalAlign=top;strokeWidth=2;strokeColor=#000000;shadow=0;dashed=0;shape=mxgraph.ios7.icons.eye;rotation=0;" vertex="1" parent="1">
          <mxGeometry x="772" y="-59.99999999999999" width="30" height="14.1" as="geometry" />
        </mxCell>
        <mxCell id="qJyfH-UtdOvOPoK_O04S-74" value="&lt;span style=&quot;font-size: 18px;&quot;&gt;Uhkametsästys&lt;/span&gt;" style="sketch=0;outlineConnect=0;fontColor=#232F3E;gradientColor=none;fillColor=#000000;strokeColor=none;dashed=0;verticalLabelPosition=bottom;verticalAlign=top;align=center;html=1;fontSize=12;fontStyle=0;aspect=fixed;pointerEvents=1;shape=mxgraph.aws4.virtual_router;" vertex="1" parent="1">
          <mxGeometry x="1007.84" y="-45.9" width="58" height="58" as="geometry" />
        </mxCell>
        <mxCell id="qJyfH-UtdOvOPoK_O04S-75" value="" style="shape=image;html=1;verticalAlign=top;verticalLabelPosition=bottom;labelBackgroundColor=#ffffff;imageAspect=0;aspect=fixed;image=https://cdn1.iconfinder.com/data/icons/competitive-strategy-and-corporate-training/512/569_Defence_firewall_protection_safety_shield_cyber_spot_security-128.png" vertex="1" parent="1">
          <mxGeometry x="499.5" y="237" width="60" height="60" as="geometry" />
        </mxCell>
        <mxCell id="qJyfH-UtdOvOPoK_O04S-77" value="&lt;font style=&quot;font-size: 18px;&quot;&gt;Uhkatieto&lt;/font&gt;" style="shape=image;html=1;verticalAlign=top;verticalLabelPosition=bottom;labelBackgroundColor=#FF9999;imageAspect=0;aspect=fixed;image=https://cdn1.iconfinder.com/data/icons/competitive-strategy-and-corporate-training/512/566_encryption_files_folder_network_secure_cyber_spot_security-128.png" vertex="1" parent="1">
          <mxGeometry x="1060" y="98.5" width="85" height="85" as="geometry" />
        </mxCell>
        <mxCell id="qJyfH-UtdOvOPoK_O04S-80" value="&lt;font style=&quot;font-size: 18px;&quot;&gt;Riskienhallinta&lt;/font&gt;" style="sketch=0;outlineConnect=0;fontColor=#000000;gradientColor=none;fillColor=#000000;strokeColor=none;dashed=0;verticalLabelPosition=bottom;verticalAlign=top;align=center;html=1;fontSize=12;fontStyle=0;aspect=fixed;pointerEvents=1;shape=mxgraph.aws4.r6g_instance;" vertex="1" parent="1">
          <mxGeometry x="-68" y="117" width="48" height="48" as="geometry" />
        </mxCell>
        <mxCell id="qJyfH-UtdOvOPoK_O04S-81" value="&lt;font face=&quot;Verdana&quot; style=&quot;font-size: 14px;&quot;&gt;Automaatio&lt;/font&gt;" style="outlineConnect=0;dashed=0;verticalLabelPosition=bottom;verticalAlign=top;align=center;html=1;shape=mxgraph.aws3.automation;fillColor=#000000;gradientColor=none;" vertex="1" parent="1">
          <mxGeometry x="220.0000000000001" y="134.5" width="78" height="81" as="geometry" />
        </mxCell>
        <mxCell id="qJyfH-UtdOvOPoK_O04S-85" value="&lt;font size=&quot;3&quot; face=&quot;Verdana&quot;&gt;Inventaarionhallinta&lt;/font&gt;" style="sketch=0;outlineConnect=0;fontColor=#232F3E;gradientColor=none;fillColor=#000000;strokeColor=none;dashed=0;verticalLabelPosition=bottom;verticalAlign=top;align=center;html=1;fontSize=12;fontStyle=0;aspect=fixed;pointerEvents=1;shape=mxgraph.aws4.iot_sitewise_asset_hierarchy;" vertex="1" parent="1">
          <mxGeometry x="420" y="150" width="50" height="50" as="geometry" />
        </mxCell>
        <mxCell id="qJyfH-UtdOvOPoK_O04S-86" value="&lt;font style=&quot;font-size: 14px;&quot; face=&quot;Verdana&quot;&gt;Tietoturvakoulutus&lt;/font&gt;" style="sketch=0;pointerEvents=1;shadow=0;dashed=0;html=1;strokeColor=none;fillColor=#000000;labelPosition=center;verticalLabelPosition=bottom;verticalAlign=top;outlineConnect=0;align=center;shape=mxgraph.office.servers.universal_security_group;" vertex="1" parent="1">
          <mxGeometry x="772" y="122" width="58" height="58" as="geometry" />
        </mxCell>
        <mxCell id="qJyfH-UtdOvOPoK_O04S-88" value="" style="image;sketch=0;aspect=fixed;html=1;points=[];align=center;fontSize=12;image=img/lib/mscae/Windows_10_IoT_Core_Services.svg;" vertex="1" parent="1">
          <mxGeometry x="153.34000000000003" y="-1" width="50" height="50" as="geometry" />
        </mxCell>
        <mxCell id="qJyfH-UtdOvOPoK_O04S-91" value="&lt;font style=&quot;font-size: 14px;&quot;&gt;Haavoittuvuushallinta&lt;/font&gt;" style="outlineConnect=0;dashed=0;verticalLabelPosition=bottom;verticalAlign=top;align=center;html=1;shape=mxgraph.aws3.toolkit_for_windows_powershell;fillColor=#000000;gradientColor=none;" vertex="1" parent="1">
          <mxGeometry x="859.5" width="70.5" height="78" as="geometry" />
        </mxCell>
        <mxCell id="qJyfH-UtdOvOPoK_O04S-92" value="&lt;font style=&quot;font-size: 14px;&quot; face=&quot;Verdana&quot;&gt;Tietoturvatestaus&lt;/font&gt;&lt;div&gt;&lt;font style=&quot;font-size: 14px;&quot; face=&quot;Verdana&quot;&gt;&amp;nbsp;ja auditointi&lt;/font&gt;&lt;/div&gt;" style="shadow=0;dashed=0;html=1;strokeColor=none;fillColor=#000000;labelPosition=center;verticalLabelPosition=bottom;verticalAlign=top;align=center;outlineConnect=0;shape=mxgraph.veeam.automated_testing;" vertex="1" parent="1">
          <mxGeometry x="900" y="-154.8" width="44.8" height="44.8" as="geometry" />
        </mxCell>
        <mxCell id="qJyfH-UtdOvOPoK_O04S-95" value="&lt;font style=&quot;font-size: 14px;&quot; face=&quot;Verdana&quot;&gt;Tietoturva-&lt;/font&gt;&lt;div&gt;&lt;font style=&quot;font-size: 14px;&quot; face=&quot;Verdana&quot;&gt;ominaisuuksien&lt;/font&gt;&lt;/div&gt;&lt;div&gt;&lt;font style=&quot;font-size: 14px;&quot; face=&quot;Verdana&quot;&gt;muutoshallinta&lt;/font&gt;&lt;/div&gt;" style="text;strokeColor=none;align=center;fillColor=none;html=1;verticalAlign=middle;whiteSpace=wrap;rounded=0;" vertex="1" parent="1">
          <mxGeometry x="148.33999999999997" y="60" width="60" height="30" as="geometry" />
        </mxCell>
      </root>
    </mxGraphModel>
  </diagram>
</mxfile>
